<?xml version="1.0" encoding="utf-8"?>
<!-- Generator: Adobe Illustrator 21.0.0, SVG Export Plug-In . SVG Version: 6.00 Build 0)  -->
<svg version="1.1" id="Layer_1" xmlns="http://www.w3.org/2000/svg" xmlns:xlink="http://www.w3.org/1999/xlink" x="0px" y="0px"
	 viewBox="0 0 24 24" style="enable-background:new 0 0 24 24;" xml:space="preserve">
<g>
	<rect x="14.5" y="9.4" width="2" height="2"/>
	<g>
		<g>
			<rect x="11" y="9.4" width="2" height="2"/>
			<rect x="18" y="9.4" width="2" height="2"/>
		</g>
		<path d="M19.3,15.2c-1.1,0-2.2-0.2-3.3-0.5c-0.3-0.1-0.6,0-0.9,0.2l-2,2c-2.5-1.3-4.6-3.5-6-6l2-2c0.3-0.3,0.4-0.6,0.2-0.9
			C9,6.9,8.8,5.8,8.8,4.7c0-0.5-0.4-0.9-0.9-0.9H4.7c-0.5,0-0.9,0.4-0.9,0.9c0,8.6,6.9,15.5,15.5,15.5c0.5,0,0.9-0.4,0.9-0.9v-3.2
			C20.2,15.5,19.8,15.2,19.3,15.2z"/>
	</g>
</g>
</svg>
